<?xml version="1.0" encoding="UTF-8"?>
<!DOCTYPE svg PUBLIC "-//W3C//DTD SVG 1.1//EN" "http://www.w3.org/Graphics/SVG/1.1/DTD/svg11.dtd">
<svg xmlns="http://www.w3.org/2000/svg" xmlns:xlink="http://www.w3.org/1999/xlink" t="1627030221163" class="icon" viewBox="0 0 1024 1024" version="1.1" p-id="5522" id="mx_n_1627030221164" data-spm-anchor-id="a313x.7781069.0.i16" width="200" height="200">
   <path d="M750.848 952.448H257.664c-112 0-202.752-90.752-202.752-202.752V256.512C54.912 144.512 145.664 53.76 257.664 53.76h493.184C862.848 53.76 953.6 144.512 953.6 256.512v493.184c0 112-90.752 202.752-202.752 202.752z" fill="#e91e63" p-id="5523" data-spm-anchor-id="a313x.7781069.0.i17" class="selected" />
   <path d="M736.512 753.664h-487.68c-18.56 0-33.536-14.976-33.536-33.536v-395.52c0-9.216 7.424-16.64 16.64-16.64h487.936c9.216 0 16.64 7.424 16.64 16.64v429.056z" fill="#E1E1E2" p-id="5524" />
   <path d="M757.12 753.664H249.344c13.824-6.144 22.656-19.84 22.656-34.816V264.96c0-6.912 5.504-12.416 12.416-12.416H780.8c6.912 0 12.416 5.504 12.416 12.416v452.48c0 20.096-16.256 36.224-36.096 36.224z" fill="#FFFFFF" p-id="5525" />
   <path d="M352.128 434.816l57.344 57.344c7.296 7.296 2.176 19.84-8.192 19.84h-57.344c-6.4 0-11.648-5.248-11.648-11.648v-57.344c0-10.368 12.544-15.616 19.84-8.192zM536.32 319.616v50.944c0 10.368-12.544 15.488-19.84 8.192l-50.944-50.944c-7.296-7.296-2.176-19.84 8.192-19.84h50.944c6.4 0 11.648 5.248 11.648 11.648zM399.744 311.424l133.12 133.12c2.176 2.176 3.456 5.12 3.456 8.192v47.616c0 6.4-5.248 11.648-11.648 11.648h-40.576c-3.072 0-6.016-1.28-8.192-3.456L335.744 368.512c-2.176-2.176-3.456-5.12-3.456-8.192v-40.704c0-6.4 5.248-11.648 11.648-11.648h47.616c3.072 0 6.016 1.28 8.192 3.456z" fill="#e91e63" p-id="5526" data-spm-anchor-id="a313x.7781069.0.i23" class="selected" />
   <path d="M332.288 571.776h460.8v11.392h-460.8zM332.288 628.352h460.8v11.392h-460.8zM332.288 685.056h460.8v11.392h-460.8z" fill="#C3C3C8" p-id="5527" />
</svg>